%FSLAX33Y33*%
%MOMM*%
%ADD10C,1.*%
%ADD11C,1.*%
%ADD12C,1.35*%
%ADD13C,0.8*%
%ADD14C,1.05*%
%ADD15C,1.05*%
%ADD16C,1.5*%
%ADD17C,0.63*%
%ADD18C,1.15*%
%ADD19C,2.4*%
%ADD20C,0.85*%
%ADD21C,1.*%
%ADD22C,1.*%
%ADD23C,0.85*%
D10*
%LNhole_traces*%
G01*
X58780Y38850D03*
X49600Y11575D03*
X10625Y38750D03*
X56240Y38850D03*
X63370Y24750D03*
X61320Y38850D03*
X60830Y24750D03*
X73100Y25000D03*
X9575Y22150D03*
X24000Y14525D03*
X45590Y11190D03*
X36000Y8325D03*
%LNhole component 6490513f982804b2*%
D11*
X74800Y27725D03*
X74800Y32725D03*
%LNhole component f480910f039b092f*%
D12*
X15100Y29965D03*
X15100Y27425D03*
X15100Y24885D03*
%LNhole component 11ce9e1fae5125d4*%
D13*
X21630Y5500D03*
X24170Y5500D03*
%LNhole component 6e5ab65975b1d4d0*%
D14*
X77460Y22044D03*
X69840Y22044D03*
%LNhole component bb6f99e9ce0ecad2*%
D15*
X2490Y34225D03*
X10110Y34225D03*
%LNhole component b08b925ae5f00e7d*%
D10*
X44630Y32775D03*
X47170Y32775D03*
%LNhole component 6b69e33c7ffc047c*%
D16*
X15275Y7850D03*
X9275Y7850D03*
X12275Y3150D03*
%LNhole component 82a621994e19bc83*%
D10*
X53705Y32825D03*
X56245Y32825D03*
%LNhole component b3c45411f0ca8f9b*%
D17*
X44090Y40275D03*
X39210Y40275D03*
%LNhole component 1ef9996777da8726*%
D13*
X4930Y24925D03*
X7470Y24925D03*
%LNhole component 6e01d915a41af154*%
D14*
X15260Y15950D03*
X7640Y15950D03*
%LNhole component a2182645b3e5b9fa*%
D18*
X53700Y41125D03*
X56240Y41125D03*
X58780Y41125D03*
X61320Y41125D03*
X63860Y41125D03*
X66400Y41125D03*
%LNhole component 5f56090bf9c139ea*%
D19*
X19700Y45275D03*
X10300Y45275D03*
X15000Y45275D03*
%LNhole component 3005891da4b15de3*%
D20*
X21225Y32725D03*
X26225Y32725D03*
%LNhole component 6d1e886b7d06c581*%
D21*
X37520Y32775D03*
X34980Y32775D03*
%LNhole component 602b28210884fb11*%
D22*
X24000Y24745D03*
X24000Y22205D03*
%LNhole component 10d1a0f9161be859*%
D15*
X29740Y5500D03*
X37360Y5500D03*
%LNhole component e2a2722308c8dc1c*%
D22*
X70990Y5425D03*
X68450Y5425D03*
X65910Y5425D03*
X63370Y5425D03*
X60830Y5425D03*
X58290Y5425D03*
X55750Y5425D03*
X53210Y5425D03*
%LNhole component f9d983522cfd9704*%
D23*
X65910Y22044D03*
X63370Y22044D03*
X60830Y22044D03*
X58290Y22044D03*
X55750Y22044D03*
X53210Y22044D03*
X50670Y22044D03*
X48130Y22044D03*
X45590Y22044D03*
X43050Y22044D03*
X40510Y22044D03*
X37970Y22044D03*
X35430Y22044D03*
X32890Y22044D03*
X32890Y14106D03*
X35430Y14106D03*
X37970Y14106D03*
X40510Y14106D03*
X43050Y14106D03*
X45590Y14106D03*
X48130Y14106D03*
X50670Y14106D03*
X53210Y14106D03*
X55750Y14106D03*
X58290Y14106D03*
X60830Y14106D03*
X63370Y14106D03*
X65910Y14106D03*
M02*