%FSLAX33Y33*%
%MOMM*%
%AMRect-W1400000-H1400000-RO1.000*
21,1,1.4,1.4,0.,0.,180*%
%AMRect-W2200000-H1600000-RO0.500*
21,1,2.2,1.6,0.,0.,270*%
%AMRect-W1230000-H1230000-RO1.000*
21,1,1.23,1.23,0.,0.,180*%
%AMRect-W1600000-H1600000-RO1.000*
21,1,1.6,1.6,0.,0.,180*%
%AMRect-W1750000-H1750000-RO1.500*
21,1,1.75,1.75,0.,0.,90*%
%AMRect-W3200000-H3200000-RO3.000*
21,1,3.2,3.2,0.,0.,-180*%
%AMRect-W1500000-H1500000-RO1.000*
21,1,1.5,1.5,0.,0.,180*%
%AMRect-W1500000-H1500000-RO0.500*
21,1,1.5,1.5,0.,0.,270*%
%AMRect-W1350000-H1350000-RO0.500*
21,1,1.35,1.35,0.,0.,270*%
%ADD10C,1.2*%
%ADD11C,1.75*%
%ADD12C,1.6*%
%ADD13R,2.05X2.05*%
%ADD14C,2.05*%
%ADD15C,1.4*%
%ADD16Rect-W1400000-H1400000-RO1.000*%
%ADD17C,1.6*%
%ADD18C,1.6*%
%ADD19R,1.5X1.5*%
%ADD20C,1.5*%
%ADD21Rect-W2200000-H1600000-RO0.500*%
%ADD22C,1.23*%
%ADD23Rect-W1230000-H1230000-RO1.000*%
%ADD24Rect-W1600000-H1600000-RO1.000*%
%ADD25C,1.75*%
%ADD26Rect-W1750000-H1750000-RO1.500*%
%ADD27C,3.2*%
%ADD28Rect-W3200000-H3200000-RO3.000*%
%ADD29R,1.35X1.35*%
%ADD30C,1.35*%
%ADD31C,1.5*%
%ADD32Rect-W1500000-H1500000-RO1.000*%
%ADD33C,1.5*%
%ADD34Rect-W1500000-H1500000-RO0.500*%
%ADD35C,1.35*%
%ADD36Rect-W1350000-H1350000-RO0.500*%
D10*
%LNtop copper_traces*%
G01*
X36000Y8325D02*
X46350Y8325D01*
X64884Y38850D02*
X66726Y37008D01*
X58780Y38223D02*
X61900Y35103D01*
X56240Y38850D02*
X56240Y37257D01*
X8705Y38750D02*
X10625Y38750D01*
X6175Y36220D02*
X8705Y38750D01*
X9575Y22150D02*
X9575Y29125D01*
X24000Y14525D02*
X27335Y11190D01*
X68504Y29596D02*
X73100Y25000D01*
X64884Y35103D02*
X65659Y34327D01*
X66726Y37008D02*
X68504Y35230D01*
X9575Y29125D02*
X6175Y32525D01*
X66726Y37008D02*
X66726Y37008D01*
X58780Y38850D02*
X58780Y38223D01*
X6175Y32525D02*
X6175Y36220D01*
X46350Y8325D02*
X49600Y11575D01*
X65659Y25654D02*
X64755Y24750D01*
X60830Y24750D02*
X60830Y32667D01*
X61900Y35103D02*
X64884Y35103D01*
X64755Y24750D02*
X63370Y24750D01*
X27335Y11190D02*
X45590Y11190D01*
X56240Y37257D02*
X60830Y32667D01*
X65659Y25654D02*
X65659Y34327D01*
X68504Y35230D02*
X68504Y29596D01*
X61320Y38850D02*
X64884Y38850D01*
D11*
X58780Y38850D03*
X49600Y11575D03*
X10625Y38750D03*
X56240Y38850D03*
X63370Y24750D03*
X61320Y38850D03*
X60830Y24750D03*
X73100Y25000D03*
X9575Y22150D03*
X24000Y14525D03*
X45590Y11190D03*
X36000Y8325D03*
%LNtop copper component 6490513f982804b2*%
D12*
X74800Y27725D03*
X74800Y32725D03*
%LNtop copper component f480910f039b092f*%
D13*
X15100Y29965D03*
D14*
X15100Y27425D03*
X15100Y24885D03*
%LNtop copper component 11ce9e1fae5125d4*%
D15*
X24170Y5500D03*
D16*
X21630Y5500D03*
%LNtop copper component 6e5ab65975b1d4d0*%
D17*
X77460Y22044D03*
X69840Y22044D03*
%LNtop copper component bb6f99e9ce0ecad2*%
D18*
X2490Y34225D03*
X10110Y34225D03*
%LNtop copper component b08b925ae5f00e7d*%
D19*
X44630Y32775D03*
D20*
X47170Y32775D03*
%LNtop copper component 6b69e33c7ffc047c*%
D21*
X15275Y7850D03*
X9275Y7850D03*
X12275Y3150D03*
%LNtop copper component 82a621994e19bc83*%
D19*
X53705Y32825D03*
D20*
X56245Y32825D03*
%LNtop copper component b3c45411f0ca8f9b*%
D22*
X39210Y40275D03*
D23*
X44090Y40275D03*
%LNtop copper component 1ef9996777da8726*%
D15*
X7470Y24925D03*
D16*
X4930Y24925D03*
%LNtop copper component 6e01d915a41af154*%
D17*
X7640Y15950D03*
D24*
X15260Y15950D03*
%LNtop copper component a2182645b3e5b9fa*%
D25*
X56240Y41125D03*
X58780Y41125D03*
X61320Y41125D03*
X63860Y41125D03*
X66400Y41125D03*
D26*
X53700Y41125D03*
%LNtop copper component 5f56090bf9c139ea*%
D27*
X10300Y45275D03*
X15000Y45275D03*
D28*
X19700Y45275D03*
%LNtop copper component 3005891da4b15de3*%
D29*
X21225Y32725D03*
D30*
X26225Y32725D03*
%LNtop copper component 6d1e886b7d06c581*%
D31*
X34980Y32775D03*
D32*
X37520Y32775D03*
%LNtop copper component 602b28210884fb11*%
D33*
X24000Y22205D03*
D34*
X24000Y24745D03*
%LNtop copper component 10d1a0f9161be859*%
D18*
X29740Y5500D03*
X37360Y5500D03*
%LNtop copper component e2a2722308c8dc1c*%
D33*
X68450Y5425D03*
X65910Y5425D03*
X63370Y5425D03*
X60830Y5425D03*
X58290Y5425D03*
X55750Y5425D03*
X53210Y5425D03*
D34*
X70990Y5425D03*
%LNtop copper component f9d983522cfd9704*%
D35*
X63370Y22044D03*
X60830Y22044D03*
X58290Y22044D03*
X55750Y22044D03*
X53210Y22044D03*
X50670Y22044D03*
X48130Y22044D03*
X45590Y22044D03*
X43050Y22044D03*
X40510Y22044D03*
X37970Y22044D03*
X35430Y22044D03*
X32890Y22044D03*
X32890Y14106D03*
X35430Y14106D03*
X37970Y14106D03*
X40510Y14106D03*
X43050Y14106D03*
X45590Y14106D03*
X48130Y14106D03*
X50670Y14106D03*
X53210Y14106D03*
X55750Y14106D03*
X58290Y14106D03*
X60830Y14106D03*
X63370Y14106D03*
X65910Y14106D03*
D36*
X65910Y22044D03*
M02*