<?xml version="1.0" encoding="utf-8" ?>
<svg baseProfile="tiny" height="186.951963934" version="1.2" width="293.251173934" xmlns="http://www.w3.org/2000/svg" xmlns:ev="http://www.w3.org/2001/xml-events" xmlns:xlink="http://www.w3.org/1999/xlink"><defs /><g id="paths" stroke="green"><path d="M 288.357866967,182.058656967 L 4.893306967,182.058656967 L 4.893306967,4.893306967 L 288.357866967,4.893306967 L 288.357866967,182.058656967 Z" fill-opacity="0" stroke-linejoin="round" stroke-width="1.0" /></g><g fill="red" id="top_parts" stroke="red"><line stroke-linecap="round" stroke-width="0.5" x1="258.5898" x2="258.5898" y1="87.098" y2="62.8264" /><line stroke-linecap="round" stroke-width="0.5" x1="258.5898" x2="281.2755" y1="62.8264" y2="62.8264" /><line stroke-linecap="round" stroke-width="0.5" x1="281.2755" x2="281.2755" y1="62.8264" y2="87.098" /><line stroke-linecap="round" stroke-width="0.5" x1="281.2755" x2="258.5898" y1="87.098" y2="87.098" /><text font-family="monospace" font-size="2" stroke-width="0.1" text-anchor="middle" x="269.932670567" y="74.962202892">S6</text><line stroke-linecap="round" stroke-width="0.5" x1="48.6531" x2="68.1413" y1="65.0409" y2="65.0409" /><line stroke-linecap="round" stroke-width="0.5" x1="68.1413" x2="68.1413" y1="65.0409" y2="104.726" /><line stroke-linecap="round" stroke-width="0.5" x1="68.1413" x2="48.6531" y1="104.726" y2="104.726" /><line stroke-linecap="round" stroke-width="0.5" x1="48.6531" x2="48.6531" y1="104.726" y2="65.0409" /><text font-family="monospace" font-size="2" stroke-width="0.1" text-anchor="middle" x="58.397242667" y="84.883462492">U34</text><text font-family="monospace" font-size="2" stroke-width="0.1" text-anchor="middle" x="86.035037267" y="162.570468467">D5</text><line stroke-linecap="round" stroke-width="0.5" x1="283.0783" x2="248.6374" y1="109.4267" y2="109.4267" /><line stroke-linecap="round" stroke-width="0.5" x1="248.6374" x2="248.6374" y1="109.4267" y2="98.4751" /><line stroke-linecap="round" stroke-width="0.5" x1="248.6374" x2="283.0783" y1="98.4751" y2="98.4751" /><line stroke-linecap="round" stroke-width="0.5" x1="283.0783" x2="283.0783" y1="98.4751" y2="109.4267" /><text font-family="monospace" font-size="2" stroke-width="0.1" text-anchor="middle" x="265.857867517" y="103.950883286">R2</text><line stroke-linecap="round" stroke-width="0.5" x1="9.9957" x2="44.4366" y1="55.3131" y2="55.3131" /><line stroke-linecap="round" stroke-width="0.5" x1="44.4366" x2="44.4366" y1="55.3131" y2="66.2648" /><line stroke-linecap="round" stroke-width="0.5" x1="44.4366" x2="9.9957" y1="66.2648" y2="66.2648" /><line stroke-linecap="round" stroke-width="0.5" x1="9.9957" x2="9.9957" y1="66.2648" y2="55.3131" /><text font-family="monospace" font-size="2" stroke-width="0.1" text-anchor="middle" x="27.216141067" y="60.788974892">R1</text><text font-family="monospace" font-size="2" stroke-width="0.1" text-anchor="middle" x="167.531098267" y="65.926770042">C4</text><line stroke-linecap="round" stroke-width="0.5" x1="62.2949" x2="62.2949" y1="137.5902" y2="175.2378" /><line stroke-linecap="round" stroke-width="0.5" x1="62.2949" x2="9.7654" y1="175.2378" y2="175.2378" /><line stroke-linecap="round" stroke-width="0.5" x1="9.7654" x2="9.7654" y1="175.2378" y2="137.5902" /><line stroke-linecap="round" stroke-width="0.5" x1="9.7654" x2="62.2949" y1="137.5902" y2="137.5902" /><text font-family="monospace" font-size="2" stroke-width="0.1" text-anchor="middle" x="36.0301172295" y="156.413972554">J6</text><text font-family="monospace" font-size="2" stroke-width="0.1" text-anchor="middle" x="199.686609292" y="65.749604692">C5</text><line stroke-linecap="round" stroke-width="0.5" x1="173.289" x2="131.6551" y1="48.2988" y2="48.2988" /><line stroke-linecap="round" stroke-width="0.5" x1="131.6551" x2="131.6551" y1="48.2988" y2="30.4051" /><line stroke-linecap="round" stroke-width="0.5" x1="131.6551" x2="173.289" y1="30.4051" y2="30.4051" /><line stroke-linecap="round" stroke-width="0.5" x1="173.289" x2="173.289" y1="30.4051" y2="48.2988" /><text font-family="monospace" font-size="2" stroke-width="0.1" text-anchor="middle" x="152.472043517" y="39.351967542">Y61</text><text font-family="monospace" font-size="2" stroke-width="0.1" text-anchor="middle" x="26.861810367" y="93.741729992">D4</text><line stroke-linecap="round" stroke-width="0.5" x1="62.6846" x2="28.2437" y1="131.0187" y2="131.0187" /><line stroke-linecap="round" stroke-width="0.5" x1="28.2437" x2="28.2437" y1="131.0187" y2="120.0671" /><line stroke-linecap="round" stroke-width="0.5" x1="28.2437" x2="62.6846" y1="120.0671" y2="120.0671" /><line stroke-linecap="round" stroke-width="0.5" x1="62.6846" x2="62.6846" y1="120.0671" y2="131.0187" /><text font-family="monospace" font-size="2" stroke-width="0.1" text-anchor="middle" x="45.464172117" y="125.542910317">D1</text><line stroke-linecap="round" stroke-width="0.5" x1="190.5094" x2="190.5094" y1="41.726" y2="30.9543" /><line stroke-linecap="round" stroke-width="0.5" x1="190.5094" x2="244.8283" y1="30.9543" y2="30.9543" /><line stroke-linecap="round" stroke-width="0.5" x1="244.8283" x2="244.8283" y1="30.9543" y2="41.726" /><line stroke-linecap="round" stroke-width="0.5" x1="244.8283" x2="190.5094" y1="41.726" y2="41.726" /><text font-family="monospace" font-size="2" stroke-width="0.1" text-anchor="middle" x="217.668892317" y="36.340156592">FTDI</text><line stroke-linecap="round" stroke-width="0.5" x1="34.83" x2="34.83" y1="34.5019" y2="8.769" /><line stroke-linecap="round" stroke-width="0.5" x1="34.83" x2="81.2558" y1="8.769" y2="8.769" /><line stroke-linecap="round" stroke-width="0.5" x1="81.2558" x2="81.2558" y1="8.769" y2="34.5019" /><line stroke-linecap="round" stroke-width="0.5" x1="81.2558" x2="34.83" y1="34.5019" y2="34.5019" /><text font-family="monospace" font-size="2" stroke-width="0.1" text-anchor="middle" x="58.042911967" y="21.635432542">SW7</text><text font-family="monospace" font-size="2" stroke-width="0.1" text-anchor="middle" x="88.958265542" y="66.103935392">C7</text><text font-family="monospace" font-size="2" stroke-width="0.1" text-anchor="middle" x="133.338185717" y="65.926770042">C3</text><text font-family="monospace" font-size="2" stroke-width="0.1" text-anchor="middle" x="89.932674967" y="98.879525142">C1</text><line stroke-linecap="round" stroke-width="0.5" x1="106.5508" x2="140.9917" y1="157.0946" y2="157.0946" /><line stroke-linecap="round" stroke-width="0.5" x1="140.9917" x2="140.9917" y1="157.0946" y2="168.0463" /><line stroke-linecap="round" stroke-width="0.5" x1="140.9917" x2="106.5508" y1="168.0463" y2="168.0463" /><line stroke-linecap="round" stroke-width="0.5" x1="106.5508" x2="106.5508" y1="168.0463" y2="157.0946" /><text font-family="monospace" font-size="2" stroke-width="0.1" text-anchor="middle" x="123.771256817" y="162.570468467">R3</text><line stroke-linecap="round" stroke-width="0.5" x1="263.5902" x2="263.5902" y1="156.6354" y2="169.037" /><line stroke-linecap="round" stroke-width="0.5" x1="263.5902" x2="186.2752" y1="169.037" y2="169.037" /><line stroke-linecap="round" stroke-width="0.5" x1="186.2752" x2="186.2752" y1="169.037" y2="156.6354" /><line stroke-linecap="round" stroke-width="0.5" x1="186.2752" x2="263.5902" y1="156.6354" y2="156.6354" /><text font-family="monospace" font-size="2" stroke-width="0.1" text-anchor="middle" x="224.932671667" y="162.836216492">J11</text><line stroke-linecap="round" stroke-width="0.5" x1="242.2435" x2="242.2435" y1="100.1418" y2="135.8849" /><line stroke-linecap="round" stroke-width="0.5" x1="242.2435" x2="117.6218" y1="135.8849" y2="135.8849" /><line stroke-linecap="round" stroke-width="0.5" x1="117.6218" x2="117.6218" y1="135.8849" y2="100.1418" /><line stroke-linecap="round" stroke-width="0.5" x1="117.6218" x2="242.2435" y1="100.1418" y2="100.1418" /><text font-family="monospace" font-size="2" stroke-width="0.1" text-anchor="middle" x="179.932672767" y="118.013382942">U55</text></g><g fill="blue" id="bottom_parts" stroke="blue" /></svg>